<?xml version="1.0" ?><svg id="Layer_1_1_" style="enable-background:new 0 0 64 64;" version="1.1" viewBox="0 0 64 64" xml:space="preserve" xmlns="http://www.w3.org/2000/svg" xmlns:xlink="http://www.w3.org/1999/xlink"><g><g><path d="M42.153,10.981C45.126,13.722,47,17.637,47,22v8c0,2.209-1.791,4-4,4h-0.19    c-0.476,2.59-1.861,4.853-3.81,6.466V41v4l10.558,2.112c2.142,0.428,3.979,1.713,5.138,3.504C57.416,46.402,59,41.388,59,36    C59,24.681,52.032,14.994,42.153,10.981z" style="fill:#00F4CB;"/></g><g><path d="M25,41v-0.534c-1.948-1.613-3.333-3.876-3.81-6.466H21c-2.209,0-4-1.791-4-4v-8    c0-4.363,1.874-8.278,4.847-11.019C11.968,14.994,5,24.681,5,36c0,5.388,1.584,10.402,4.304,14.616    c1.159-1.791,2.996-3.076,5.138-3.504L25,45V41z" style="fill:#00F4CB;"/></g><g><path d="M24.724,62c2.316,0.647,4.754,1,7.276,1s4.96-0.353,7.276-1H24.724z" style="fill:#00F4CB;"/></g><g><path d="M63,7c0-2.206-1.794-4-4-4H14.236l-3.789-1.895C10.135,0.95,9.767,0.967,9.47,1.152l-8,5    C1.415,6.186,1.368,6.23,1.321,6.274C1.31,6.284,1.297,6.291,1.286,6.302C1.207,6.383,1.147,6.478,1.1,6.579    c-0.012,0.025-0.02,0.049-0.03,0.075C1.029,6.764,1,6.879,1,7s0.029,0.236,0.07,0.346c0.01,0.026,0.018,0.05,0.03,0.075    c0.047,0.102,0.108,0.196,0.187,0.277C1.297,7.709,1.31,7.716,1.321,7.726C1.368,7.77,1.415,7.814,1.47,7.848l8,5    C9.632,12.949,9.815,13,10,13c0.153,0,0.306-0.035,0.447-0.105L14.236,11h6.175C17.685,13.87,16,17.738,16,22v8    c0,2.544,1.917,4.627,4.379,4.937c0.595,2.351,1.881,4.424,3.635,5.994C24.012,40.955,24,40.976,24,41v3.18l-9.755,1.951    c-3.081,0.616-5.652,2.837-6.71,5.798l-3.477,9.734c-0.109,0.306-0.063,0.646,0.124,0.913C4.37,62.842,4.675,63,5,63h54    c0.325,0,0.63-0.158,0.817-0.424c0.188-0.266,0.233-0.606,0.124-0.913l-3.477-9.734c-1.058-2.96-3.629-5.182-6.71-5.798L40,44.18    V41c0-0.024-0.012-0.045-0.014-0.068c1.754-1.57,3.04-3.643,3.635-5.994C46.083,34.627,48,32.544,48,30v-8    c0-4.262-1.685-8.13-4.411-11H59C61.206,11,63,9.206,63,7z M10.055,10.855L5.487,8H7c0.553,0,1-0.448,1-1S7.553,6,7,6H5.487    l4.568-2.855L13,4.618v4.764L10.055,10.855z M15,5h44c1.103,0,2,0.897,2,2s-0.897,2-2,2H41.292C38.669,7.12,35.466,6,32,6    s-6.669,1.12-9.292,3H15V5z M18,30c0-1.302,0.839-2.402,2-2.816V32c0,0.28,0.023,0.554,0.042,0.829C18.859,32.427,18,31.317,18,30    z M49.362,48.092c2.397,0.479,4.396,2.207,5.22,4.51L57.581,61H6.419l2.999-8.398c0.823-2.303,2.822-4.031,5.22-4.51l9.878-1.976    C25.384,47.383,27.696,50,32,50s6.616-2.617,7.485-3.883L49.362,48.092z M38,44.736C37.568,45.444,35.751,48,32,48    c-3.753,0-5.559-2.533-6-3.262v-2.362C27.767,43.402,29.813,44,32,44s4.233-0.598,6-1.624V44.736z M32,42c-5.514,0-10-4.486-10-10    v-7h2.758c2.681,0,5.218-0.932,7.242-2.643C34.024,24.068,36.562,25,39.242,25H42v7C42,37.514,37.514,42,32,42z M43.958,32.829    C43.977,32.554,44,32.28,44,32v-4.816c1.161,0.414,2,1.514,2,2.816C46,31.317,45.141,32.427,43.958,32.829z M46,26.026    c-0.584-0.442-1.257-0.773-2-0.924V23c0-0.552-0.447-1-1-1s-1,0.448-1,1h-2.758c-2.469,0-4.789-0.961-6.535-2.707    c-0.391-0.391-1.023-0.391-1.414,0C29.547,22.039,27.227,23,24.758,23H22c0-0.552-0.447-1-1-1s-1,0.448-1,1v2.101    c-0.743,0.152-1.416,0.482-2,0.924V22c0-7.72,6.28-14,14-14s14,6.28,14,14V26.026z"/><circle cx="10" cy="7" r="1"/><circle cx="53" cy="38" r="1"/><path d="M54,28c0-0.552-0.447-1-1-1s-1,0.448-1,1v6c0,0.552,0.447,1,1,1s1-0.448,1-1V28z"/><circle cx="49" cy="43" r="1"/><path d="M50,33c0-0.552-0.447-1-1-1s-1,0.448-1,1v6c0,0.552,0.447,1,1,1s1-0.448,1-1V33z"/><circle cx="11" cy="38" r="1"/><circle cx="26" cy="28" r="1"/><circle cx="38" cy="28" r="1"/><path d="M12,34v-6c0-0.552-0.447-1-1-1s-1,0.448-1,1v6c0,0.552,0.447,1,1,1S12,34.552,12,34z"/><circle cx="15" cy="43" r="1"/><path d="M16,39v-6c0-0.552-0.447-1-1-1s-1,0.448-1,1v6c0,0.552,0.447,1,1,1S16,39.552,16,39z"/><path d="M35,34c-0.553,0-1,0.448-1,1c0,1.103-0.897,2-2,2s-2-0.897-2-2c0-0.552-0.447-1-1-1s-1,0.448-1,1c0,2.206,1.794,4,4,4    s4-1.794,4-4C36,34.448,35.553,34,35,34z"/></g></g></svg>